<?xml version="1.0" encoding="utf-8"?>
<svg viewBox="0 0 16 16" width="24px" height="24px" xmlns="http://www.w3.org/2000/svg">
  <g color="#000" transform="matrix(0.8333330154418945, 0, 0, 0.8306690454483032, -350.0915222167969, -440.38684082031256)" style="">
    <path fill="#f47750" d="m425.71 535.79h2v2h-2z"/>
    <path fill="#2ecc71" d="m423.71 539.79h2v2h-2z"/>
    <path fill="#fdbc4b" d="m431.71 535.79h2v2h-2z"/>
    <path fill="#1d99f3" d="m423.71 535.79h2v2h-2z"/>
    <path fill="#da4453" d="m429.71 535.79h2v2h-2z"/>
    <path fill="#2ecc71" d="m427.71 535.79h2v2h-2z"/>
    <path fill="#fdbc4b" d="m427.71 537.79h2v2h-2z"/>
    <path fill="#1d99f3" d="m425.71 537.79h2v2h-2z"/>
    <path fill="#da4453" d="m423.71 537.79h2v2h-2z"/>
    <path fill="#2ecc71" d="m431.71 537.79h2v2h-2z"/>
    <path fill="#f47750" d="m429.71 537.79h2v2h-2z"/>
    <path fill="#fdbc4b" d="m431.71 539.79h2v2h-2z"/>
    <path fill="#1d99f3" d="m429.71 539.79h2v2h-2z"/>
    <path fill="#da4453" d="m427.71 539.79h2v2h-2z"/>
    <path fill="#f47750" d="m425.71 539.79h2v2h-2z"/>
    <path fill="#fdbc4b" d="m429.71 541.79h2v2h-2z"/>
    <path fill="#1d99f3" d="m427.71 541.79h2v2h-2z"/>
    <path fill="#da4453" d="m425.71 541.79h2v2h-2z"/>
    <path fill="#2ecc71" d="m431.71 541.79h2v2h-2z"/>
    <path fill="#fdbc4b" d="m425.71 543.79h2v2h-2z"/>
    <path fill="#1d99f3" d="m423.71 543.79h2v2h-2z"/>
    <path fill="#da4453" d="m433.71 537.79h2v2h-2z"/>
    <path fill="#1d99f3" d="m433.71 539.79h2v2h-2z"/>
    <path fill="#f47750" d="m423.71 541.79h2v2h-2z"/>
    <path fill="#2ecc71" d="m433.71 535.79h2v2h-2z"/>
    <path fill="#fdbc4b" d="m423.71 533.79h2v2h-2z"/>
    <path fill="#1d99f3" d="m427.71 533.79h2v2h-2z"/>
    <path fill="#da4453" d="m425.71 533.79h2v2h-2z"/>
    <path fill="#2ecc71" d="m431.71 533.79h2v2h-2z"/>
    <path fill="#f47750" d="m433.71 533.79h2v2h-2z"/>
    <path fill="#fdbc4b" d="m429.71 533.79h2v2h-2z"/>
    <path fill="#da4453" d="m433.71 541.79h2v2h-2z"/>
    <path fill="#fdbc4b" d="m431.71 543.79h2v2h-2z"/>
    <path fill="#da4453" d="m429.71 543.79h2v2h-2z"/>
    <g fill="#2ecc71">
      <path d="m427.71 543.79h2v2h-2z"/>
      <path d="m433.71 543.79h2v2h-2z"/>
    </g>
  </g>
</svg>